#!OML:ASF X:\für Bonn\!DataBase\2005_08_12_Daniel\c3d\Daniel.ASF
:FULLY-SPECIFIED
:DEGREES
155
root 2.46812 17.645 17.6637 -4.13287 22.1618 0.78018
lowerback 6.88759 4.70156 4.06845
upperback 0.753608 6.45099 -8.0135
thorax -1.66674 3.26605 -11.3292
lowerneck 2.926 -8.7009 -5.44497
upperneck 10.7468 -12.1707 5.98685
head 3.82577 -6.0602 2.59368
rclavicle 1.00784e-013 5.725e-014
rhumerus 64.1218 -28.4148 -84.1157
rradius 8.66164
rwrist 61.814
rhand 5.90424 7.73067
rfingers 7.12502
rthumb 31.2321 -19.6263
lclavicle 1.00784e-013 5.725e-014
lhumerus -31.8733 34.62 64.3394
lradius 16.8518
lwrist -37.96
lhand -9.66078 -8.37983
lfingers 7.12502
lthumb 16.3103 20.9543
rfemur 12.0873 14.1923 23.189
rtibia 12.3339
rfoot -31.0882 -31.8833
rtoes -8.74979
lfemur -1.93664 -19.8829 -18.7442
ltibia 27.1659
lfoot -20.5217 3.22423
ltoes -15.7281
156
root 2.4674 17.645 17.6628 -4.15063 22.2016 0.776231
lowerback 6.94489 4.69227 4.10695
upperback 0.747963 6.44141 -8.01367
thorax -1.70239 3.25921 -11.3588
lowerneck 2.95772 -8.70589 -5.42988
upperneck 10.743 -12.1749 5.95504
head 3.81484 -6.06317 2.58162
rclavicle 1.82981e-013 -1.1291e-013
rhumerus 64.1682 -28.377 -84.1819
rradius 8.65676
rwrist 62.2403
rhand 5.73387 7.84749
rfingers 7.12502
rthumb 31.0697 -19.5407
lclavicle 1.82981e-013 -1.1291e-013
lhumerus -31.8321 34.3964 64.4244
lradius 16.8808
lwrist -37.7425
lhand -9.65735 -8.38845
lfingers 7.12502
lthumb 16.3136 20.9454
rfemur 12.1219 14.1795 23.2054
rtibia 12.3091
rfoot -31.1013 -31.9083
rtoes -8.73611
lfemur -1.93721 -19.8887 -18.7368
ltibia 27.1671
lfoot -20.5092 3.18858
ltoes -15.7284
157
root 2.46619 17.6446 17.6623 -4.15106 22.2357 0.775323
lowerback 6.98797 4.68208 4.13259
upperback 0.742491 6.42956 -8.00696
thorax -1.73276 3.25136 -11.3714
lowerneck 2.98253 -8.70341 -5.47094
upperneck 10.7275 -12.1736 5.97508
head 3.80967 -6.06411 2.59698
rclavicle 7.27552e-014 -4.92986e-014
rhumerus 64.1921 -28.3382 -84.2384
rradius 8.71901
rwrist 62.7271
rhand 5.54638 7.99359
rfingers 7.12502
rthumb 30.891 -19.4286
lclavicle 7.27552e-014 -4.92986e-014
lhumerus -31.7937 34.2191 64.5264
lradius 16.9371
lwrist -37.5661
lhand -9.66775 -8.37345
lfingers 7.12502
lthumb 16.3036 20.9612
rfemur 12.149 14.2434 23.2396
rtibia 12.2803
rfoot -31.1635 -31.9877
rtoes -8.6917
lfemur -1.95472 -19.8885 -18.7251
ltibia 27.1729
lfoot -20.5016 3.15256
ltoes -15.7286
158
root 2.46657 17.645 17.6619 -4.13446 22.2692 0.779472
lowerback 6.9803 4.67272 4.16486
upperback 0.75442 6.4202 -8.01093
thorax -1.71389 3.248 -11.3928
lowerneck 3.00361 -8.69978 -5.45845
upperneck 10.6709 -12.1677 5.98414
head 3.78489 -6.06137 2.60001
rclavicle 4.67144e-014 4.6118e-014
rhumerus 64.3134 -28.3233 -84.3115
rradius 8.68907
rwrist 63.2311
rhand 5.29337 8.10348
rfingers 7.12502
rthumb 30.6498 -19.3642
lclavicle 4.67144e-014 4.6118e-014
lhumerus -31.7311 34.1153 64.593
lradius 16.9786
lwrist -37.4718
lhand -9.60994 -8.33913
lfingers 7.12502
lthumb 16.3592 20.9909
rfemur 12.1473 14.2046 23.2223
rtibia 12.2551
rfoot -31.1501 -31.9832
rtoes -8.6931
lfemur -1.98343 -19.8971 -18.7232
ltibia 27.1785
lfoot -20.4955 3.12993
ltoes -15.7288
159
root 2.46595 17.6456 17.6626 -4.11988 22.2725 0.793296
lowerback 6.99213 4.6764 4.16492
upperback 0.744815 6.42475 -8.00373
thorax -1.73046 3.24904 -11.387
lowerneck 3.0741 -8.70475 -5.47518
upperneck 10.6169 -12.1736 5.97782
head 3.7538 -6.06688 2.60462
rclavicle -1.10822e-013 -2.22639e-014
rhumerus 64.3247 -28.32 -84.339
rradius 8.77483
rwrist 63.7455
rhand 5.08055 8.27072
rfingers 7.12502
rthumb 30.4468 -19.2347
lclavicle -1.10822e-013 -2.22639e-014
lhumerus -31.6762 33.9709 64.6676
lradius 16.9631
lwrist -37.3827
lhand -9.60816 -8.35171
lfingers 7.12502
lthumb 16.3609 20.9782
rfemur 12.1557 14.2454 23.2228
rtibia 12.2334
rfoot -31.1501 -32.0271
rtoes -8.71564
lfemur -1.992 -19.8969 -18.7312
ltibia 27.1821
lfoot -20.5013 3.12482
ltoes -15.7212
160
root 2.46492 17.646 17.6612 -4.11367 22.3086 0.791804
lowerback 7.03479 4.66143 4.19018
upperback 0.729487 6.40599 -7.99278
thorax -1.77311 3.2366 -11.3948
lowerneck 3.10482 -8.69111 -5.48928
upperneck 10.6052 -12.1535 5.95759
head 3.74187 -6.05865 2.60271
rclavicle 4.05521e-014 4.13472e-014
rhumerus 64.3737 -28.2751 -84.3791
rradius 8.79445
rwrist 64.2673
rhand 4.90187 8.3944
rfingers 7.12502
rthumb 30.2764 -19.1425
lclavicle 4.05521e-014 4.13472e-014
lhumerus -31.6822 33.8283 64.7087
lradius 17.0061
lwrist -37.3262
lhand -9.59269 -8.41871
lfingers 7.12502
lthumb 16.3758 20.91
rfemur 12.1555 14.2397 23.2308
rtibia 12.219
rfoot -31.1623 -32.0546
rtoes -8.704
lfemur -2.01989 -19.884 -18.712
ltibia 27.1828
lfoot -20.4869 3.07405
ltoes -15.7214
161
root 2.46459 17.6462 17.661 -4.11125 22.3143 0.793973
lowerback 7.04993 4.658 4.19769
upperback 0.727507 6.40193 -7.97499
thorax -1.78588 3.23353 -11.381
lowerneck 3.13972 -8.69701 -5.5132
upperneck 10.5848 -12.1603 5.94347
head 3.72934 -6.06413 2.60369
rclavicle -1.15295e-013 -1.59028e-014
rhumerus 64.4281 -28.2243 -84.4215
rradius 8.83703
rwrist 64.7016
rhand 4.75121 8.49382
rfingers 7.12502
rthumb 30.1326 -19.0694
lclavicle -1.15295e-013 -1.59028e-014
lhumerus -31.6461 33.7469 64.7815
lradius 17.0172
lwrist -37.2345
lhand -9.55137 -8.38043
lfingers 7.12502
lthumb 16.4156 20.945
rfemur 12.1648 14.2805 23.2431
rtibia 12.2089
rfoot -31.1905 -32.0932
rtoes -8.68926
lfemur -2.02362 -19.8834 -18.7129
ltibia 27.1813
lfoot -20.4837 3.06823
ltoes -15.7215
162
root 2.46377 17.6462 17.6601 -4.1125 22.3456 0.792952
lowerback 7.07224 4.6487 4.22142
upperback 0.726365 6.39139 -7.97064
thorax -1.79976 3.22733 -11.3923
lowerneck 3.24588 -8.68638 -5.51907
upperneck 10.4802 -12.1471 5.96812
head 3.67418 -6.06001 2.62025
rclavicle 8.36883e-014 -1.43125e-014
rhumerus 64.4797 -28.2291 -84.461
rradius 8.86341
rwrist 65.1248
rhand 4.59581 8.62302
rfingers 7.12502
rthumb 29.9844 -18.9671
lclavicle 8.36883e-014 -1.43125e-014
lhumerus -31.6276 33.6151 64.8382
lradius 17.0445
lwrist -37.1947
lhand -9.5452 -8.41333
lfingers 7.12502
lthumb 16.4216 20.9116
rfemur 12.1705 14.3321 23.2709
rtibia 12.2161
rfoot -31.2548 -32.1569
rtoes -8.65963
lfemur -2.03366 -19.8838 -18.7034
ltibia 27.1747
lfoot -20.4696 3.03632
ltoes -15.7216
163
root 2.46341 17.6464 17.6602 -4.1055 22.3499 0.793169
lowerback 7.07703 4.63753 4.22094
upperback 0.725122 6.37621 -7.94936
thorax -1.8098 3.21872 -11.3681
lowerneck 3.26866 -8.68114 -5.54819
upperneck 10.4641 -12.1388 5.95297
head 3.66466 -6.05791 2.62182
rclavicle 8.24956e-014 -6.83819e-014
rhumerus 64.5582 -28.1411 -84.5226
rradius 8.84872
rwrist 65.4109
rhand 4.43725 8.61882
rfingers 7.12502
rthumb 29.8331 -18.9985
lclavicle 8.24956e-014 -6.83819e-014
lhumerus -31.6085 33.5319 64.9019
lradius 17.0704
lwrist -37.1711
lhand -9.5381 -8.40194
lfingers 7.12502
lthumb 16.4284 20.9224
rfemur 12.1601 14.338 23.2724
rtibia 12.2224
rfoot -31.2643 -32.1638
rtoes -8.65593
lfemur -2.0322 -19.8815 -18.6981
ltibia 27.1665
lfoot -20.4717 3.02632
ltoes -15.7118
164
root 2.46336 17.6467 17.6593 -4.08143 22.3522 0.832581
lowerback 7.09752 4.63995 4.21162
upperback 0.71886 6.3785 -7.95864
thorax -1.82723 3.21899 -11.376
lowerneck 3.29195 -8.68876 -5.52034
upperneck 10.4398 -12.1461 5.92722
head 3.64784 -6.06178 2.60943
rclavicle -2.83268e-014 -2.38542e-014
rhumerus 64.5906 -28.1714 -84.5536
rradius 8.82064
rwrist 65.6209
rhand 4.24288 8.68412
rfingers 7.12502
rthumb 29.6476 -18.9664
lclavicle -2.83268e-014 -2.38542e-014
lhumerus -31.5335 33.3128 65.0258
lradius 17.0878
lwrist -36.9848
lhand -9.51193 -8.36648
lfingers 7.12502
lthumb 16.4536 20.9558
rfemur 12.1433 14.3516 23.2308
rtibia 12.2319
rfoot -31.2748 -32.1699
rtoes -8.63796
lfemur -2.04238 -19.8847 -18.7366
ltibia 27.1586
lfoot -20.4616 3.032
ltoes -15.7118
165
root 2.4639 17.6473 17.6583 -4.06358 22.3647 0.834635
lowerback 7.10255 4.63693 4.23567
upperback 0.706411 6.37587 -7.96139
thorax -1.84072 3.21649 -11.3946
lowerneck 3.34022 -8.69254 -5.50511
upperneck 10.4091 -12.1518 5.93299
head 3.62775 -6.06499 2.61127
rclavicle 8.67695e-014 -4.13472e-014
rhumerus 64.6003 -28.1903 -84.5933
rradius 8.82212
rwrist 65.6697
rhand 4.09394 8.66338
rfingers 7.12502
rthumb 29.5054 -19.0123
lclavicle 8.67695e-014 -4.13472e-014
lhumerus -31.4867 33.1434 65.1145
lradius 17.1158
lwrist -36.8985
lhand -9.49436 -8.33511
lfingers 7.12502
lthumb 16.4705 20.9857
rfemur 12.1219 14.377 23.2313
rtibia 12.2419
rfoot -31.3046 -32.1953
rtoes -8.62449
lfemur -2.06542 -19.8882 -18.7334
ltibia 27.153
lfoot -20.4535 3.02401
ltoes -15.6339
